<svg width="80" height="80" viewBox="0 0 80 80" fill="none" xmlns="http://www.w3.org/2000/svg">
<g clip-path="url(#clip0_122_54)">
<rect width="80" height="80" rx="15" fill="white"/>
<ellipse cx="50" cy="75" rx="29" ry="18" fill="#FFD3D4" fill-opacity="0.4"/>
<ellipse cx="3" cy="23" rx="14" ry="18" fill="#FFD3D4" fill-opacity="0.4"/>
<ellipse cx="36" cy="24.5" rx="6" ry="6.5" fill="#FFD3D4" fill-opacity="0.4"/>
<ellipse cx="75.5" cy="5.5" rx="14.5" ry="8.5" fill="#FFD3D4" fill-opacity="0.4"/>
<mask id="path-7-outside-1_122_54" maskUnits="userSpaceOnUse" x="17" y="19" width="46" height="45" fill="black">
<rect fill="white" x="17" y="19" width="46" height="45"/>
<path d="M18.1 56.65H21.2V50.45H24.25V41.15H27.35V35.55H18.1V31.9H30.45V19.55H34.05V31.9H43.35V35H46.4V54.05H43.35V60.25H40.25V63.4H27.35V59.7H39.7V53.55H42.8V35.55H31V41.7H27.9V51H24.8V57.15H21.7V63.4H18.1V56.65ZM55.15 38.6H52.05V32.45H48.95V29.35H45.9V25.7H49.5V28.8H52.6V31.9H55.7V38.1H58.75V44.25H61.85V47.9H58.2V44.8H55.15V38.6Z"/>
</mask>
<path d="M18.1 56.65H21.2V50.45H24.25V41.15H27.35V35.55H18.1V31.9H30.45V19.55H34.05V31.9H43.35V35H46.4V54.05H43.35V60.25H40.25V63.4H27.35V59.7H39.7V53.55H42.8V35.55H31V41.7H27.9V51H24.8V57.15H21.7V63.4H18.1V56.65ZM55.15 38.6H52.05V32.45H48.95V29.35H45.9V25.7H49.5V28.8H52.6V31.9H55.7V38.1H58.75V44.25H61.85V47.9H58.2V44.8H55.15V38.6Z" fill="#535353"/>
<path d="M18.1 56.65V56.15H17.6V56.65H18.1ZM21.2 56.65V57.15H21.7V56.65H21.2ZM21.2 50.45V49.95H20.7V50.45H21.2ZM24.25 50.45V50.95H24.75V50.45H24.25ZM24.25 41.15V40.65H23.75V41.15H24.25ZM27.35 41.15V41.65H27.85V41.15H27.35ZM27.35 35.55H27.85V35.05H27.35V35.55ZM18.1 35.55H17.6V36.05H18.1V35.55ZM18.1 31.9V31.4H17.6V31.9H18.1ZM30.45 31.9V32.4H30.95V31.9H30.45ZM30.45 19.55V19.05H29.95V19.55H30.45ZM34.05 19.55H34.55V19.05H34.05V19.55ZM34.05 31.9H33.55V32.4H34.05V31.9ZM43.35 31.9H43.85V31.4H43.35V31.9ZM43.35 35H42.85V35.5H43.35V35ZM46.4 35H46.9V34.5H46.4V35ZM46.4 54.05V54.55H46.9V54.05H46.4ZM43.35 54.05V53.55H42.85V54.05H43.35ZM43.35 60.25V60.75H43.85V60.25H43.35ZM40.25 60.25V59.75H39.75V60.25H40.25ZM40.25 63.4V63.9H40.75V63.4H40.25ZM27.35 63.4H26.85V63.9H27.35V63.4ZM27.35 59.7V59.2H26.85V59.7H27.35ZM39.7 59.7V60.2H40.2V59.7H39.7ZM39.7 53.55V53.05H39.2V53.55H39.7ZM42.8 53.55V54.05H43.3V53.55H42.8ZM42.8 35.55H43.3V35.05H42.8V35.55ZM31 35.55V35.05H30.5V35.55H31ZM31 41.7V42.2H31.5V41.7H31ZM27.9 41.7V41.2H27.4V41.7H27.9ZM27.9 51V51.5H28.4V51H27.9ZM24.8 51V50.5H24.3V51H24.8ZM24.8 57.15V57.65H25.3V57.15H24.8ZM21.7 57.15V56.65H21.2V57.15H21.7ZM21.7 63.4V63.9H22.2V63.4H21.7ZM18.1 63.4H17.6V63.9H18.1V63.4ZM55.15 38.6H55.65V38.1H55.15V38.6ZM52.05 38.6H51.55V39.1H52.05V38.6ZM52.05 32.45H52.55V31.95H52.05V32.45ZM48.95 32.45H48.45V32.95H48.95V32.45ZM48.95 29.35H49.45V28.85H48.95V29.35ZM45.9 29.35H45.4V29.85H45.9V29.35ZM45.9 25.7V25.2H45.4V25.7H45.9ZM49.5 25.7H50V25.2H49.5V25.7ZM49.5 28.8H49V29.3H49.5V28.8ZM52.6 28.8H53.1V28.3H52.6V28.8ZM52.6 31.9H52.1V32.4H52.6V31.9ZM55.7 31.9H56.2V31.4H55.7V31.9ZM55.7 38.1H55.2V38.6H55.7V38.1ZM58.75 38.1H59.25V37.6H58.75V38.1ZM58.75 44.25H58.25V44.75H58.75V44.25ZM61.85 44.25H62.35V43.75H61.85V44.25ZM61.85 47.9V48.4H62.35V47.9H61.85ZM58.2 47.9H57.7V48.4H58.2V47.9ZM58.2 44.8H58.7V44.3H58.2V44.8ZM55.15 44.8H54.65V45.3H55.15V44.8ZM18.1 56.65V57.15H21.2V56.65V56.15H18.1V56.65ZM21.2 56.65H21.7V50.45H21.2H20.7V56.65H21.2ZM21.2 50.45V50.95H24.25V50.45V49.95H21.2V50.45ZM24.25 50.45H24.75V41.15H24.25H23.75V50.45H24.25ZM24.25 41.15V41.65H27.35V41.15V40.65H24.25V41.15ZM27.35 41.15H27.85V35.55H27.35H26.85V41.15H27.35ZM27.35 35.55V35.05H18.1V35.55V36.05H27.35V35.55ZM18.1 35.55H18.6V31.9H18.1H17.6V35.55H18.1ZM18.1 31.9V32.4H30.45V31.9V31.4H18.1V31.9ZM30.45 31.9H30.95V19.55H30.45H29.95V31.9H30.45ZM30.45 19.55V20.05H34.05V19.55V19.05H30.45V19.55ZM34.05 19.55H33.55V31.9H34.05H34.55V19.55H34.05ZM34.05 31.9V32.4H43.35V31.9V31.4H34.05V31.9ZM43.35 31.9H42.85V35H43.35H43.85V31.9H43.35ZM43.35 35V35.5H46.4V35V34.5H43.35V35ZM46.4 35H45.9V54.05H46.4H46.9V35H46.4ZM46.4 54.05V53.55H43.35V54.05V54.55H46.4V54.05ZM43.35 54.05H42.85V60.25H43.35H43.85V54.05H43.35ZM43.35 60.25V59.75H40.25V60.25V60.75H43.35V60.25ZM40.25 60.25H39.75V63.4H40.25H40.75V60.25H40.25ZM40.25 63.4V62.9H27.35V63.4V63.9H40.25V63.4ZM27.35 63.4H27.85V59.7H27.35H26.85V63.4H27.35ZM27.35 59.7V60.2H39.7V59.7V59.2H27.35V59.7ZM39.7 59.7H40.2V53.55H39.7H39.2V59.7H39.7ZM39.7 53.55V54.05H42.8V53.55V53.05H39.7V53.55ZM42.8 53.55H43.3V35.55H42.8H42.3V53.55H42.8ZM42.8 35.55V35.05H31V35.55V36.05H42.8V35.55ZM31 35.55H30.5V41.7H31H31.5V35.55H31ZM31 41.7V41.2H27.9V41.7V42.2H31V41.7ZM27.9 41.7H27.4V51H27.9H28.4V41.7H27.9ZM27.9 51V50.5H24.8V51V51.5H27.9V51ZM24.8 51H24.3V57.15H24.8H25.3V51H24.8ZM24.8 57.15V56.65H21.7V57.15V57.65H24.8V57.15ZM21.7 57.15H21.2V63.4H21.7H22.2V57.15H21.7ZM21.7 63.4V62.9H18.1V63.4V63.9H21.7V63.4ZM18.1 63.4H18.6V56.65H18.1H17.6V63.4H18.1ZM55.15 38.6V38.1H52.05V38.6V39.1H55.15V38.6ZM52.05 38.6H52.55V32.45H52.05H51.55V38.6H52.05ZM52.05 32.45V31.95H48.95V32.45V32.95H52.05V32.45ZM48.95 32.45H49.45V29.35H48.95H48.45V32.45H48.95ZM48.95 29.35V28.85H45.9V29.35V29.85H48.95V29.35ZM45.9 29.35H46.4V25.7H45.9H45.4V29.35H45.9ZM45.9 25.7V26.2H49.5V25.7V25.2H45.9V25.7ZM49.5 25.7H49V28.8H49.5H50V25.7H49.5ZM49.5 28.8V29.3H52.6V28.8V28.3H49.5V28.8ZM52.6 28.8H52.1V31.9H52.6H53.1V28.8H52.6ZM52.6 31.9V32.4H55.7V31.9V31.4H52.6V31.9ZM55.7 31.9H55.2V38.1H55.7H56.2V31.9H55.7ZM55.7 38.1V38.6H58.75V38.1V37.6H55.7V38.1ZM58.75 38.1H58.25V44.25H58.75H59.25V38.1H58.75ZM58.75 44.25V44.75H61.85V44.25V43.75H58.75V44.25ZM61.85 44.25H61.35V47.9H61.85H62.35V44.25H61.85ZM61.85 47.9V47.4H58.2V47.9V48.4H61.85V47.9ZM58.2 47.9H58.7V44.8H58.2H57.7V47.9H58.2ZM58.2 44.8V44.3H55.15V44.8V45.3H58.2V44.8ZM55.15 44.8H55.65V38.6H55.15H54.65V44.8H55.15Z" fill="#535353" mask="url(#path-7-outside-1_122_54)"/>
</g>
<rect x="0.5" y="0.5" width="79" height="79" rx="14.5" stroke="#535353"/>
<defs>
<clipPath id="clip0_122_54">
<rect width="80" height="80" rx="15" fill="white"/>
</clipPath>
</defs>
</svg>
